<svg width="56" height="42" viewBox="0 0 56 42" fill="currentColor" xmlns="http://www.w3.org/2000/svg" class="_cardIcon_mhdxw_48"><path d="M47.443 3.91477C47.1543 3.58639 46.8174 3.35183 46.4324 3.2111C44.8442 2.69507 40.5129 1.33464 36.2297 0.490234C36.0372 0.490234 35.989 0.490234 35.8447 0.67788C35.5559 1.14699 34.8821 2.17905 34.449 3.25801C34.449 3.25801 31.2727 2.88272 28.0001 2.88272C24.7276 2.88272 21.5512 3.25801 21.5512 3.25801C21.1181 2.22596 20.4443 1.14699 20.1556 0.67788C20.0112 0.490234 19.9631 0.490234 19.7706 0.490234C15.4874 1.33464 11.156 2.69507 9.56787 3.2111C9.18286 3.35183 8.84598 3.58639 8.55722 3.91477C-1.16423 15.6895 0.0870467 31.7801 0.375803 34.1257C0.375803 34.3134 0.472055 34.501 0.664558 34.5948C5.3809 38.4885 13.1292 41.1624 14.188 41.4908C14.2842 41.5377 14.3323 41.4908 14.3805 41.4439C15.8724 39.6613 16.9311 37.4564 17.2199 36.8935C17.268 36.7997 17.2199 36.7058 17.1236 36.6589C14.573 35.58 12.8886 34.4072 12.8886 34.4072C13.2736 34.1257 13.7548 33.7035 13.7548 33.7035C17.0755 35.5331 23.9094 36.7058 28.0001 36.7058C32.0908 36.7058 38.9247 35.58 42.2454 33.7035C42.2454 33.7035 42.7267 34.1257 43.1117 34.4072C43.1117 34.4072 41.4273 35.58 38.8285 36.612C38.7803 36.6589 38.7322 36.7528 38.7322 36.8466C39.021 37.4564 40.1279 39.6144 41.6198 41.4439C41.6679 41.4908 41.7641 41.5377 41.8123 41.4908C42.871 41.1624 50.6193 38.4885 55.3838 34.5948C55.5282 34.4541 55.6244 34.3134 55.6726 34.1257C55.8651 31.7801 57.1645 15.6895 47.443 3.91477ZM18.6155 28.3087C15.9205 28.3087 13.7548 25.8693 13.7548 22.9139C13.7548 19.9585 15.9205 17.5191 18.6155 17.5191C21.3106 17.5191 23.4763 19.9585 23.4763 22.9139C23.4763 25.8693 21.3106 28.3087 18.6155 28.3087ZM37.3847 28.3087C34.6896 28.3087 32.524 25.8693 32.524 22.9139C32.524 19.9585 34.6896 17.5191 37.3847 17.5191C40.0797 17.5191 42.2454 19.9585 42.2454 22.9139C42.2454 25.8693 40.0797 28.3087 37.3847 28.3087Z" fill="currentColor"></path></svg>