<svg xmlns="http://www.w3.org/2000/svg" viewBox="0 0 200 200">
  <defs>
    <!-- Gradientes -->
    <linearGradient id="goldGradient" x1="0%" y1="0%" x2="100%" y2="100%">
      <stop offset="0%" stop-color="#FFD700" />
      <stop offset="50%" stop-color="#FFA500" />
      <stop offset="100%" stop-color="#FF8C00" />
    </linearGradient>
    
    <radialGradient id="bgGradient" cx="50%" cy="50%" r="50%" fx="50%" fy="50%">
      <stop offset="0%" stop-color="#1A1A1A" />
      <stop offset="100%" stop-color="#000000" />
    </radialGradient>
    
    <!-- Filtros -->
    <filter id="glow" x="-20%" y="-20%" width="140%" height="140%">
      <feGaussianBlur stdDeviation="3" result="blur" />
      <feFlood flood-color="#FFB700" flood-opacity="0.7" result="coloredBlur"/>
      <feComposite in="coloredBlur" in2="blur" operator="in" result="coloredBlur"/>
      <feComposite in="SourceGraphic" in2="coloredBlur" operator="over" />
    </filter>
    
    <!-- Patrón para textura metálica -->
    <pattern id="metalPattern" width="4" height="4" patternUnits="userSpaceOnUse">
      <rect width="4" height="4" fill="#FFA500" fill-opacity="0.05" />
      <rect width="2" height="2" fill="#FFD700" fill-opacity="0.1" />
      <rect x="2" y="2" width="2" height="2" fill="#FFD700" fill-opacity="0.1" />
    </pattern>
    
    <!-- Clip para ruleta -->
    <clipPath id="circleClip">
      <circle cx="100" cy="100" r="65" />
    </clipPath>
  </defs>

  <!-- Fondo principal -->
  <circle cx="100" cy="100" r="90" fill="url(#bgGradient)" />
  
  <!-- Borde exterior con efecto de luz -->
  <circle cx="100" cy="100" r="88" fill="none" stroke="url(#goldGradient)" stroke-width="4" opacity="0.8">
    <animate attributeName="opacity" values="0.6;0.9;0.6" dur="3s" repeatCount="indefinite" />
  </circle>
  
  <!-- Círculos concéntricos decorativos -->
  <circle cx="100" cy="100" r="80" fill="none" stroke="#FFB700" stroke-width="1" stroke-dasharray="3,3" opacity="0.5">
    <animateTransform 
      attributeName="transform"
      type="rotate"
      from="0 100 100"
      to="360 100 100"
      dur="30s"
      repeatCount="indefinite"
    />
  </circle>
  
  <circle cx="100" cy="100" r="75" fill="none" stroke="#FFB700" stroke-width="1" stroke-dasharray="1,5" opacity="0.3">
    <animateTransform 
      attributeName="transform"
      type="rotate"
      from="360 100 100"
      to="0 100 100"
      dur="20s"
      repeatCount="indefinite"
    />
  </circle>
  
  <!-- Ruleta principal -->
  <g clip-path="url(#circleClip)">
    <!-- Segmentos de la ruleta -->
    <g transform="translate(100, 100)">
      <!-- Segmentos de la ruleta (12 segmentos) -->
      <path d="M0,0 L0,-65 A65,65 0 0,1 16.9,-62.8 z" fill="#FF5252" stroke="#FFB700" stroke-width="0.5" />
      <path d="M0,0 L16.9,-62.8 A65,65 0 0,1 32.5,-56.3 z" fill="#FF9800" stroke="#FFB700" stroke-width="0.5" />
      <path d="M0,0 L32.5,-56.3 A65,65 0 0,1 45.9,-46.5 z" fill="#FFEB3B" stroke="#FFB700" stroke-width="0.5" />
      <path d="M0,0 L45.9,-46.5 A65,65 0 0,1 56.3,-32.5 z" fill="#4CAF50" stroke="#FFB700" stroke-width="0.5" />
      <path d="M0,0 L56.3,-32.5 A65,65 0 0,1 62.8,-16.9 z" fill="#2196F3" stroke="#FFB700" stroke-width="0.5" />
      <path d="M0,0 L62.8,-16.9 A65,65 0 0,1 65,0 z" fill="#9C27B0" stroke="#FFB700" stroke-width="0.5" />
      <path d="M0,0 L65,0 A65,65 0 0,1 62.8,16.9 z" fill="#FF5252" stroke="#FFB700" stroke-width="0.5" />
      <path d="M0,0 L62.8,16.9 A65,65 0 0,1 56.3,32.5 z" fill="#FF9800" stroke="#FFB700" stroke-width="0.5" />
      <path d="M0,0 L56.3,32.5 A65,65 0 0,1 45.9,46.5 z" fill="#FFEB3B" stroke="#FFB700" stroke-width="0.5" />
      <path d="M0,0 L45.9,46.5 A65,65 0 0,1 32.5,56.3 z" fill="#4CAF50" stroke="#FFB700" stroke-width="0.5" />
      <path d="M0,0 L32.5,56.3 A65,65 0 0,1 16.9,62.8 z" fill="#2196F3" stroke="#FFB700" stroke-width="0.5" />
      <path d="M0,0 L16.9,62.8 A65,65 0 0,1 0,65 z" fill="#9C27B0" stroke="#FFB700" stroke-width="0.5" />
      <path d="M0,0 L0,65 A65,65 0 0,1 -16.9,62.8 z" fill="#FF5252" stroke="#FFB700" stroke-width="0.5" />
      <path d="M0,0 L-16.9,62.8 A65,65 0 0,1 -32.5,56.3 z" fill="#FF9800" stroke="#FFB700" stroke-width="0.5" />
      <path d="M0,0 L-32.5,56.3 A65,65 0 0,1 -45.9,46.5 z" fill="#FFEB3B" stroke="#FFB700" stroke-width="0.5" />
      <path d="M0,0 L-45.9,46.5 A65,65 0 0,1 -56.3,32.5 z" fill="#4CAF50" stroke="#FFB700" stroke-width="0.5" />
      <path d="M0,0 L-56.3,32.5 A65,65 0 0,1 -62.8,16.9 z" fill="#2196F3" stroke="#FFB700" stroke-width="0.5" />
      <path d="M0,0 L-62.8,16.9 A65,65 0 0,1 -65,0 z" fill="#9C27B0" stroke="#FFB700" stroke-width="0.5" />
      <path d="M0,0 L-65,0 A65,65 0 0,1 -62.8,-16.9 z" fill="#FF5252" stroke="#FFB700" stroke-width="0.5" />
      <path d="M0,0 L-62.8,-16.9 A65,65 0 0,1 -56.3,-32.5 z" fill="#FF9800" stroke="#FFB700" stroke-width="0.5" />
      <path d="M0,0 L-56.3,-32.5 A65,65 0 0,1 -45.9,-46.5 z" fill="#FFEB3B" stroke="#FFB700" stroke-width="0.5" />
      <path d="M0,0 L-45.9,-46.5 A65,65 0 0,1 -32.5,-56.3 z" fill="#4CAF50" stroke="#FFB700" stroke-width="0.5" />
      <path d="M0,0 L-32.5,-56.3 A65,65 0 0,1 -16.9,-62.8 z" fill="#2196F3" stroke="#FFB700" stroke-width="0.5" />
      <path d="M0,0 L-16.9,-62.8 A65,65 0 0,1 0,-65 z" fill="#9C27B0" stroke="#FFB700" stroke-width="0.5" />
      
      <!-- Animación de giro rápida al inicio y luego más lenta -->
      <animateTransform 
        id="spinAnimation"
        attributeName="transform"
        type="rotate"
        from="0"
        to="1080"
        dur="8s"
        begin="0s"
        repeatCount="1"
        calcMode="spline"
        keySplines="0.32, 0.95, 0.6, 1"
        fill="freeze"
      />
      
      <!-- Animación de giro continua después de la inicial -->
      <animateTransform 
        attributeName="transform"
        type="rotate"
        from="1080"
        to="1440"
        dur="15s"
        begin="spinAnimation.end"
        repeatCount="indefinite"
        calcMode="spline"
        keySplines="0.1, 0.8, 0.2, 1"
      />
    </g>
  </g>
  
  <!-- Marco decorativo de la ruleta -->
  <circle cx="100" cy="100" r="65" fill="none" stroke="url(#goldGradient)" stroke-width="3" />
  
  <!-- Indicadores de premio (triángulos) -->
  <path d="M100,29 L96,37 L104,37 Z" fill="#FFB700" filter="url(#glow)">
    <animate attributeName="opacity" values="0.5;1;0.5" dur="1s" repeatCount="indefinite" />
  </path>
  
  <path d="M100,171 L96,163 L104,163 Z" fill="#FFB700" filter="url(#glow)">
    <animate attributeName="opacity" values="0.5;1;0.5" dur="1s" repeatCount="indefinite" begin="0.2s" />
  </path>
  
  <path d="M29,100 L37,96 L37,104 Z" fill="#FFB700" filter="url(#glow)">
    <animate attributeName="opacity" values="0.5;1;0.5" dur="1s" repeatCount="indefinite" begin="0.4s" />
  </path>
  
  <path d="M171,100 L163,96 L163,104 Z" fill="#FFB700" filter="url(#glow)">
    <animate attributeName="opacity" values="0.5;1;0.5" dur="1s" repeatCount="indefinite" begin="0.6s" />
  </path>
  
  <!-- Texto "SORTEO" -->
  <text x="100" y="100" font-family="Arial, sans-serif" font-size="16" font-weight="bold" fill="url(#goldGradient)" text-anchor="middle" dominant-baseline="middle" filter="url(#glow)">SORTEO</text>
  
  <!-- Destellos giratorios alrededor de la ruleta -->
  <g>
    <circle cx="100" cy="35" r="3" fill="#FFFFFF" opacity="0.8">
      <animateTransform 
        attributeName="transform"
        type="rotate"
        from="0 100 100"
        to="360 100 100"
        dur="5s"
        repeatCount="indefinite"
      />
      <animate attributeName="r" values="2;4;2" dur="2s" repeatCount="indefinite" />
      <animate attributeName="opacity" values="0.4;0.8;0.4" dur="2s" repeatCount="indefinite" />
    </circle>
    
    <circle cx="100" cy="35" r="3" fill="#FFFFFF" opacity="0.8">
      <animateTransform 
        attributeName="transform"
        type="rotate"
        from="90 100 100"
        to="450 100 100"
        dur="5s"
        repeatCount="indefinite"
      />
      <animate attributeName="r" values="2;4;2" dur="2s" repeatCount="indefinite" begin="0.5s" />
      <animate attributeName="opacity" values="0.4;0.8;0.4" dur="2s" repeatCount="indefinite" begin="0.5s" />
    </circle>
    
    <circle cx="100" cy="35" r="3" fill="#FFFFFF" opacity="0.8">
      <animateTransform 
        attributeName="transform"
        type="rotate"
        from="180 100 100"
        to="540 100 100"
        dur="5s"
        repeatCount="indefinite"
      />
      <animate attributeName="r" values="2;4;2" dur="2s" repeatCount="indefinite" begin="1s" />
      <animate attributeName="opacity" values="0.4;0.8;0.4" dur="2s" repeatCount="indefinite" begin="1s" />
    </circle>
    
    <circle cx="100" cy="35" r="3" fill="#FFFFFF" opacity="0.8">
      <animateTransform 
        attributeName="transform"
        type="rotate"
        from="270 100 100"
        to="630 100 100"
        dur="5s"
        repeatCount="indefinite"
      />
      <animate attributeName="r" values="2;4;2" dur="2s" repeatCount="indefinite" begin="1.5s" />
      <animate attributeName="opacity" values="0.4;0.8;0.4" dur="2s" repeatCount="indefinite" begin="1.5s" />
    </circle>
  </g>
  
  <!-- Estrellas decorativas en las esquinas -->
  <g>
    <path d="M40,40 L43,47 L51,48 L45,53 L47,61 L40,57 L33,61 L35,53 L29,48 L37,47 Z" fill="url(#goldGradient)" opacity="0.7" filter="url(#glow)">
      <animate attributeName="opacity" values="0.3;0.7;0.3" dur="3s" repeatCount="indefinite" />
    </path>
    
    <path d="M160,40 L163,47 L171,48 L165,53 L167,61 L160,57 L153,61 L155,53 L149,48 L157,47 Z" fill="url(#goldGradient)" opacity="0.7" filter="url(#glow)">
      <animate attributeName="opacity" values="0.3;0.7;0.3" dur="3s" repeatCount="indefinite" begin="0.7s" />
    </path>
    
    <path d="M160,160 L163,167 L171,168 L165,173 L167,181 L160,177 L153,181 L155,173 L149,168 L157,167 Z" fill="url(#goldGradient)" opacity="0.7" filter="url(#glow)">
      <animate attributeName="opacity" values="0.3;0.7;0.3" dur="3s" repeatCount="indefinite" begin="1.4s" />
    </path>
    
    <path d="M40,160 L43,167 L51,168 L45,173 L47,181 L40,177 L33,181 L35,173 L29,168 L37,167 Z" fill="url(#goldGradient)" opacity="0.7" filter="url(#glow)">
      <animate attributeName="opacity" values="0.3;0.7;0.3" dur="3s" repeatCount="indefinite" begin="2.1s" />
    </path>
  </g>
  
  <!-- Efecto de resplandor pulsante para indicar interactividad -->
  <circle cx="100" cy="100" r="90" fill="none" stroke="url(#goldGradient)" stroke-width="2" opacity="0.2">
    <animate attributeName="r" values="86;92;86" dur="3s" repeatCount="indefinite" />
    <animate attributeName="opacity" values="0.2;0.4;0.2" dur="3s" repeatCount="indefinite" />
  </circle>
</svg>
